<?xml version="1.0" encoding="UTF-8"?>
<!DOCTYPE svg PUBLIC "-//W3C//DTD SVG 1.1//EN" "http://www.w3.org/Graphics/SVG/1.1/DTD/svg11.dtd">
<!-- Creator: CorelDRAW -->
<svg xmlns="http://www.w3.org/2000/svg" xml:space="preserve" width="2048px" height="2048px" style="shape-rendering:geometricPrecision; text-rendering:geometricPrecision; image-rendering:optimizeQuality; fill-rule:evenodd; clip-rule:evenodd"
viewBox="0 0 2048 2048"
 xmlns:xlink="http://www.w3.org/1999/xlink">
 <defs>
  <style type="text/css">
   <![CDATA[
    .fil0 {fill:#00838F}
    .fil1 {fill:#FFFFFE}
   ]]>
  </style>
 </defs>
 <g id="Layer_x0020_1">
  <metadata id="CorelCorpID_0Corel-Layer"/>
  <circle class="fil0" cx="1024" cy="1024" r="1024"/>
  <path class="fil1" d="M1467.33 1560.67l0 -1073.33c0,-12.887 -10.448,-23.3339 -23.3339,-23.3339l-839.998 0c-12.887,0 -23.3339,10.4469 -23.3339,23.3339l0 1073.33c0,12.887 10.4469,23.3339 23.3339,23.3339l839.998 0c12.8858,0 23.3339,-10.4469 23.3339,-23.3339zm-769.999 -956.666l350 0 0 46.6678 -350 0 0 -46.6678zm0 233.334l396.666 0 0 46.6678 -396.666 0 0 -46.6678zm466.666 233.334l186.667 0 0 46.6678 -186.667 0 0 -46.6678zm0 116.667l186.667 0 0 46.6678 -186.667 0 0 -46.6678zm0 116.667l186.667 0 0 46.6678 -186.667 0 0 -46.6678zm0 -466.668l186.667 0 0 46.6678 -186.667 0 0 -46.6678zm0 116.667l186.667 0 0 46.6678 -186.667 0 0 -46.6678zm-466.666 0l396.666 0 0 46.6678 -396.666 0 0 -46.6678zm0 116.667l396.666 0 0 46.6678 -396.666 0 0 -46.6678zm0 116.667l396.666 0 0 46.6678 -396.666 0 0 -46.6678z"/>
 </g>
</svg>
