<?xml version="1.0" encoding="UTF-8"?>
<!DOCTYPE svg PUBLIC "-//W3C//DTD SVG 1.1//EN" "http://www.w3.org/Graphics/SVG/1.1/DTD/svg11.dtd">
<!-- Creator: CorelDRAW -->
<svg xmlns="http://www.w3.org/2000/svg" xml:space="preserve" width="6.82666in" height="6.82666in" style="shape-rendering:geometricPrecision; text-rendering:geometricPrecision; image-rendering:optimizeQuality; fill-rule:evenodd; clip-rule:evenodd"
viewBox="0 0 6.82666 6.82666"
 xmlns:xlink="http://www.w3.org/1999/xlink">
 <defs>
  <style type="text/css">
   <![CDATA[
    .fil0 {fill:#66BB6A}
    .fil2 {fill:#FFFFFE}
    .fil1 {fill:#FFFFFE;fill-rule:nonzero}
   ]]>
  </style>
 </defs>
 <g id="Layer_x0020_1">
  <metadata id="CorelCorpID_0Corel-Layer"/>
  <rect class="fil0" width="6.82666" height="6.82666" rx="0.853335" ry="0.853335"/>
  <g id="_215555912">
   <g>
    <path id="_215557232" class="fil1" d="M1.92267 4.70855c0,-0.0467283 -0.0378819,-0.0846142 -0.0846102,-0.0846142 -0.0467283,0 -0.0846102,0.0378858 -0.0846102,0.0846142l0 0.755181c0,0.0467283 0.0378819,0.0846142 0.0846102,0.0846142 0.0467283,0 0.0846102,-0.0378858 0.0846102,-0.0846142l0 -0.755181z"/>
    <path id="_215557568" class="fil1" d="M1.99562 5.05483c0,-0.0274606 -0.0705433,-0.0497205 -0.157559,-0.0497205 -0.0870118,0 -0.157559,0.0222598 -0.157559,0.0497205l0 0.443791c0,0.0274606 0.0705472,0.0497244 0.157559,0.0497244 0.0870157,0 0.157559,-0.0222638 0.157559,-0.0497244l0 -0.443791z"/>
    <path id="_215557304" class="fil1" d="M0.87811 5.81144c-0.0330354,0.0330394 -0.0330354,0.0866063 0,0.119646 0.0330394,0.0330354 0.0866063,0.0330354 0.119646,0l0.171114 -0.171118c0.634173,-0.119169 0.685453,-0.120169 1.32027,-0.0180984l0.18922 0.189217c0.0330394,0.0330354 0.0866102,0.0330354 0.119646,0 0.0330354,-0.0330394 0.0330354,-0.0866063 0,-0.119646l-0.207299 -0.207295c-0.0121575,-0.0125315 -0.0282874,-0.0214213 -0.0468307,-0.0244961l-0.0138465 0.0834685 0.0135512 -0.0832874 -0.68537 -0.113685c-0.011374,-0.00279528 -0.0235157,-0.00326378 -0.0357756,-0.00096063l3.54331e-005 0.000204724 -0.704925 0.132476c-0.0183031,0.00211417 -0.0360472,0.0101772 -0.0500866,0.0242165l7.87402e-006 3.93701e-006 -0.189358 0.189354z"/>
    <path id="_215556944" class="fil1" d="M1.83806 4.87182c-0.0233622,0 -0.0423071,0.0189409 -0.0423071,0.0423031 0,0.0233622 0.0189449,0.0423071 0.0423071,0.0423071l0.405228 0 0.0479134 0.0496811 0.0646339 0.0927126c0.0231496,0.0240709 0.0614409,0.024815 0.0855118,0.00166142 0.0240709,-0.0231535 0.024811,-0.0626299 0.00166142,-0.0867008l-0.0880394 -0.0639409 -0.0613661 -0.063626c-0.00775984,-0.00930709 -0.019437,-0.0143976 -0.0325,-0.0143976l-0.423043 0z"/>
   </g>
   <path id="_215556896" class="fil2" d="M2.44982 3.08235c0.0142953,0.0120551 0.0333504,0.0243346 0.0487362,0.0349094 0.0305866,0.0210236 0.0615315,0.0415827 0.0925512,0.0619488 0.0322913,0.0211969 0.0647323,0.0422008 0.0973819,0.0628425 0.0170118,0.0107559 0.035752,0.0233386 0.0534567,0.0327835 0.079689,0.0403386 0.310902,0.0343307 0.40122,0.0308701 0.0892913,-0.00341732 0.178465,-0.00973228 0.267531,-0.0167717 0.064185,-0.0050748 0.129555,-0.0116654 0.193815,-0.0142244l0.0342598 -0.00137008c0.0587402,-0.00604724 0.114965,-0.0298465 0.159102,-0.0697717 0.0489409,-0.0442717 0.0787441,-0.10435 0.0787441,-0.170937 0,-0.0665866 -0.0298031,-0.126669 -0.0787441,-0.170937 -0.0513071,-0.0464094 -0.118945,-0.0710354 -0.187886,-0.0713071 -0.00309449,7.48031e-005 -0.00616929,5.90551e-005 -0.00927559,-9.44882e-005l-0.596717 -0.0291732 -0.497909 -0.697067c-0.0167717,-0.0234764 -0.0369803,-0.0442559 -0.0602087,-0.0613898 -0.0224685,-0.0165709 -0.0505472,-0.0285906 -0.0761339,-0.0394724 -0.0235866,-0.0100276 -0.0477874,-0.0218583 -0.0722087,-0.0295 -0.140016,-0.0437992 -0.294063,-0.0162953 -0.410406,0.0731929 -0.0455669,0.0350433 -0.0841693,0.0785551 -0.113409,0.128051 -0.0248346,0.0420512 -0.0394213,0.126508 -0.0476811,0.174472 -0.0181654,0.105476 -0.0313307,0.211976 -0.0488976,0.317654 -0.0783898,0.471732 -0.131606,0.944965 -0.194067,1.41862 -0.007,0.0530906 -0.00456299,0.107138 0.00745669,0.159331 0.00800394,0.034752 0.020685,0.0728031 0.0375433,0.110972 0.332386,-0.0386339 0.690669,-0.0270984 1.00192,0.0425669 0.069815,0.00448425 0.130634,0.0421102 0.166909,0.0972913l0.119193 -0.0182953 0.0378937 0.0597362c0.0211102,0.0332795 0.0398701,0.0714843 0.0577913,0.106642 0.0290394,0.0569843 0.0574606,0.114315 0.086063,0.171524 0.0762362,0.152484 0.153276,0.304587 0.234681,0.45439 0.0685669,0.126177 0.140575,0.252909 0.220217,0.372449 0.166559,0.315744 0.673705,0.246118 0.474035,-0.23689 -0.0782008,-0.189161 -0.17802,-0.376571 -0.276724,-0.555846 -0.0824252,-0.14972 -0.167929,-0.297736 -0.254201,-0.445268 -0.063626,-0.108811 -0.128874,-0.217429 -0.190248,-0.327484 -0.0504016,-0.0903819 -0.148433,-0.191831 -0.261425,-0.181185l-0.679795 0.0640472 0.00410236 -1.01362 0.181331 0.176311z"/>
   <path id="_215556824" class="fil1" d="M2.36774 0.870791c0.141957,0 0.270488,0.0575512 0.363535,0.150591 0.0930394,0.0930433 0.150591,0.221575 0.150591,0.363531 0,0.141953 -0.0575512,0.270488 -0.150591,0.363531 -0.0930472,0.0930394 -0.221579,0.150591 -0.363535,0.150591 -0.141953,0 -0.270488,-0.0575512 -0.363528,-0.150591 -0.0930394,-0.0930433 -0.150591,-0.221579 -0.150591,-0.363531 0,-0.141957 0.0575512,-0.270488 0.150591,-0.363531 0.0930394,-0.0930394 0.221575,-0.150591 0.363528,-0.150591z"/>
   <polygon id="_215556848" class="fil1" points="3.65396,3.42815 5.97333,3.42815 5.97333,3.64461 3.65396,3.64461 "/>
   <polygon id="_215556584" class="fil1" points="5.43391,3.53637 5.43391,5.62381 5.21744,5.62381 5.21744,3.53637 "/>
   <polygon id="_215557040" class="fil1" points="4.72146,5.51558 5.92989,5.51558 5.92989,5.73205 4.72146,5.73205 "/>
   <path id="_215556416" class="fil1" d="M3.91913 3.15211c-0.0597717,0 -0.0744094,0.0484606 -0.0744094,0.108232 0,0.0597717 0.0146378,0.108232 0.0744094,0.108232l0.919882 0c0.0380551,0 0.0715236,-0.0196496 0.0908228,-0.0493543l0.00720472 -0.0158661 0 -0.0843701c0.00957874,-0.00375197 0.0178819,-0.0100433 0.0240866,-0.0180433l0.0199409 0.00546457 0.424555 -0.934862 -0.0913228 -0.0397362 -0.397752 0.877933 -0.000137795 0c-0.0263425,0 -0.0484685,0.018 -0.0547677,0.0423701l-0.942512 0zm0.453508 0.0718346l0.386839 0 0 0.0338228 -0.386839 0 0 -0.0338228z"/>
   <path id="_215556560" class="fil1" d="M1.13237 2.44285c-0.00256299,-0.0595433 -0.0529173,-0.105724 -0.112457,-0.103161 -0.0595394,0.00256693 -0.105724,0.0529173 -0.103157,0.112461l0.149606 2.12706 -0.00030315 0.000401575c0.00270866,0.0580157 0.050626,0.103217 0.108114,0.103177l0 3.93701e-006 1.34175 0c0.0597717,0 0.108232,-0.0484606 0.108232,-0.108232 0,-0.0597717 -0.0484606,-0.108232 -0.108232,-0.108232 -0.347122,-0.0793504 -0.816496,-0.0897598 -1.23878,0 0.16889,-0.634169 0.0809291,-1.20141 -0.144768,-2.02348z"/>
  </g>
 </g>
</svg>
